<svg version="1.1" xmlns="http://www.w3.org/2000/svg" xmlns:xlink="http://www.w3.org/1999/xlink" width="1106.3271484375" height="916"><defs/><g><text fill="#eeeeee" stroke="none" font-family="Arial" font-size="24px" font-style="normal" font-weight="normal" text-decoration="none" x="1000" y="870">UNREGISTERED</text><text fill="#eeeeee" stroke="none" font-family="Arial" font-size="24px" font-style="normal" font-weight="normal" text-decoration="none" x="1000" y="900">UNREGISTERED</text><g transform="translate(-78,-38) scale(1,1)"><rect fill="#C0C0C0" stroke="none" x="105" y="55" width="174.58447265625" height="44" opacity="0.2"/></g><g transform="translate(-78,-38) scale(1,1)"><rect fill="#ffffff" stroke="none" x="88" y="48" width="184.58447265625" height="44"/></g><g transform="translate(-78,-38) scale(1,1)"><path fill="none" stroke="#000000" d="M 88 48 L 272.58447265625 48 L 272.58447265625 92 L 88 92 L 88 48 Z Z" stroke-miterlimit="10"/></g><g transform="translate(-78,-38) scale(1,1)"><rect fill="#ffffff" stroke="none" x="252.58447265625" y="58" width="13" height="16"/></g><g transform="translate(-78,-38) scale(1,1)"><path fill="none" stroke="#000000" d="M 252.58447265625 58 L 265.58447265625 58 L 265.58447265625 74 L 252.58447265625 74 L 252.58447265625 58 Z Z" stroke-miterlimit="10"/></g><g transform="translate(-78,-38) scale(1,1)"><rect fill="#ffffff" stroke="none" x="249.58447265625" y="61" width="7" height="4"/></g><g transform="translate(-78,-38) scale(1,1)"><path fill="none" stroke="#000000" d="M 249.58447265625 61 L 256.58447265625 61 L 256.58447265625 65 L 249.58447265625 65 L 249.58447265625 61 Z Z" stroke-miterlimit="10"/></g><g transform="translate(-78,-38) scale(1,1)"><rect fill="#ffffff" stroke="none" x="249.58447265625" y="67" width="7" height="4"/></g><g transform="translate(-78,-38) scale(1,1)"><path fill="none" stroke="#000000" d="M 249.58447265625 67 L 256.58447265625 67 L 256.58447265625 71 L 249.58447265625 71 L 249.58447265625 67 Z Z" stroke-miterlimit="10"/></g><g transform="translate(-78,-38) scale(1,1)"><g><path fill="none" stroke="none"/><text fill="#000000" stroke="none" font-family="Arial" font-size="13px" font-style="normal" font-weight="normal" text-decoration="none" x="154.562255859375" y="65.5">«UI»</text></g></g><g transform="translate(-78,-38) scale(1,1)"><g><path fill="none" stroke="none"/><text fill="#000000" stroke="none" font-family="Arial" font-size="13px" font-style="normal" font-weight="bold" text-decoration="none" x="137.2236328125" y="80.5">LoginForm</text></g></g><g transform="translate(-78,-38) scale(1,1)"><rect fill="#C0C0C0" stroke="none" x="105" y="197" width="174.58447265625" height="44" opacity="0.2"/></g><g transform="translate(-78,-38) scale(1,1)"><rect fill="#ffffff" stroke="none" x="88" y="190" width="184.58447265625" height="44"/></g><g transform="translate(-78,-38) scale(1,1)"><path fill="none" stroke="#000000" d="M 88 190 L 272.58447265625 190 L 272.58447265625 234 L 88 234 L 88 190 Z Z" stroke-miterlimit="10"/></g><g transform="translate(-78,-38) scale(1,1)"><rect fill="#ffffff" stroke="none" x="252.58447265625" y="200" width="13" height="16"/></g><g transform="translate(-78,-38) scale(1,1)"><path fill="none" stroke="#000000" d="M 252.58447265625 200 L 265.58447265625 200 L 265.58447265625 216 L 252.58447265625 216 L 252.58447265625 200 Z Z" stroke-miterlimit="10"/></g><g transform="translate(-78,-38) scale(1,1)"><rect fill="#ffffff" stroke="none" x="249.58447265625" y="203" width="7" height="4"/></g><g transform="translate(-78,-38) scale(1,1)"><path fill="none" stroke="#000000" d="M 249.58447265625 203 L 256.58447265625 203 L 256.58447265625 207 L 249.58447265625 207 L 249.58447265625 203 Z Z" stroke-miterlimit="10"/></g><g transform="translate(-78,-38) scale(1,1)"><rect fill="#ffffff" stroke="none" x="249.58447265625" y="209" width="7" height="4"/></g><g transform="translate(-78,-38) scale(1,1)"><path fill="none" stroke="#000000" d="M 249.58447265625 209 L 256.58447265625 209 L 256.58447265625 213 L 249.58447265625 213 L 249.58447265625 209 Z Z" stroke-miterlimit="10"/></g><g transform="translate(-78,-38) scale(1,1)"><g><path fill="none" stroke="none"/><text fill="#000000" stroke="none" font-family="Arial" font-size="13px" font-style="normal" font-weight="normal" text-decoration="none" x="154.562255859375" y="207.5">«UI»</text></g></g><g transform="translate(-78,-38) scale(1,1)"><g><path fill="none" stroke="none"/><text fill="#000000" stroke="none" font-family="Arial" font-size="13px" font-style="normal" font-weight="bold" text-decoration="none" x="139.0390625" y="222.5">MainForm</text></g></g><g transform="translate(-78,-38) scale(1,1)"><rect fill="#C0C0C0" stroke="none" x="105" y="126" width="174.58447265625" height="44" opacity="0.2"/></g><g transform="translate(-78,-38) scale(1,1)"><rect fill="#ffffff" stroke="none" x="88" y="119" width="184.58447265625" height="44"/></g><g transform="translate(-78,-38) scale(1,1)"><path fill="none" stroke="#000000" d="M 88 119 L 272.58447265625 119 L 272.58447265625 163 L 88 163 L 88 119 Z Z" stroke-miterlimit="10"/></g><g transform="translate(-78,-38) scale(1,1)"><rect fill="#ffffff" stroke="none" x="252.58447265625" y="129" width="13" height="16"/></g><g transform="translate(-78,-38) scale(1,1)"><path fill="none" stroke="#000000" d="M 252.58447265625 129 L 265.58447265625 129 L 265.58447265625 145 L 252.58447265625 145 L 252.58447265625 129 Z Z" stroke-miterlimit="10"/></g><g transform="translate(-78,-38) scale(1,1)"><rect fill="#ffffff" stroke="none" x="249.58447265625" y="132" width="7" height="4"/></g><g transform="translate(-78,-38) scale(1,1)"><path fill="none" stroke="#000000" d="M 249.58447265625 132 L 256.58447265625 132 L 256.58447265625 136 L 249.58447265625 136 L 249.58447265625 132 Z Z" stroke-miterlimit="10"/></g><g transform="translate(-78,-38) scale(1,1)"><rect fill="#ffffff" stroke="none" x="249.58447265625" y="138" width="7" height="4"/></g><g transform="translate(-78,-38) scale(1,1)"><path fill="none" stroke="#000000" d="M 249.58447265625 138 L 256.58447265625 138 L 256.58447265625 142 L 249.58447265625 142 L 249.58447265625 138 Z Z" stroke-miterlimit="10"/></g><g transform="translate(-78,-38) scale(1,1)"><g><path fill="none" stroke="none"/><text fill="#000000" stroke="none" font-family="Arial" font-size="13px" font-style="normal" font-weight="normal" text-decoration="none" x="154.562255859375" y="136.5">«UI»</text></g></g><g transform="translate(-78,-38) scale(1,1)"><g><path fill="none" stroke="none"/><text fill="#000000" stroke="none" font-family="Arial" font-size="13px" font-style="normal" font-weight="bold" text-decoration="none" x="128.924072265625" y="151.5">RegisterForm</text></g></g><g transform="translate(-78,-38) scale(1,1)"><rect fill="#C0C0C0" stroke="none" x="105" y="765" width="174.58447265625" height="44" opacity="0.2"/></g><g transform="translate(-78,-38) scale(1,1)"><rect fill="#ffffff" stroke="none" x="88" y="758" width="184.58447265625" height="44"/></g><g transform="translate(-78,-38) scale(1,1)"><path fill="none" stroke="#000000" d="M 88 758 L 272.58447265625 758 L 272.58447265625 802 L 88 802 L 88 758 Z Z" stroke-miterlimit="10"/></g><g transform="translate(-78,-38) scale(1,1)"><rect fill="#ffffff" stroke="none" x="252.58447265625" y="768" width="13" height="16"/></g><g transform="translate(-78,-38) scale(1,1)"><path fill="none" stroke="#000000" d="M 252.58447265625 768 L 265.58447265625 768 L 265.58447265625 784 L 252.58447265625 784 L 252.58447265625 768 Z Z" stroke-miterlimit="10"/></g><g transform="translate(-78,-38) scale(1,1)"><rect fill="#ffffff" stroke="none" x="249.58447265625" y="771" width="7" height="4"/></g><g transform="translate(-78,-38) scale(1,1)"><path fill="none" stroke="#000000" d="M 249.58447265625 771 L 256.58447265625 771 L 256.58447265625 775 L 249.58447265625 775 L 249.58447265625 771 Z Z" stroke-miterlimit="10"/></g><g transform="translate(-78,-38) scale(1,1)"><rect fill="#ffffff" stroke="none" x="249.58447265625" y="777" width="7" height="4"/></g><g transform="translate(-78,-38) scale(1,1)"><path fill="none" stroke="#000000" d="M 249.58447265625 777 L 256.58447265625 777 L 256.58447265625 781 L 249.58447265625 781 L 249.58447265625 777 Z Z" stroke-miterlimit="10"/></g><g transform="translate(-78,-38) scale(1,1)"><g><path fill="none" stroke="none"/><text fill="#000000" stroke="none" font-family="Arial" font-size="13px" font-style="normal" font-weight="normal" text-decoration="none" x="154.562255859375" y="775.5">«UI»</text></g></g><g transform="translate(-78,-38) scale(1,1)"><g><path fill="none" stroke="none"/><text fill="#000000" stroke="none" font-family="Arial" font-size="13px" font-style="normal" font-weight="bold" text-decoration="none" x="119.5263671875" y="790.5">BuyProductForm</text></g></g><g transform="translate(-78,-38) scale(1,1)"><rect fill="#C0C0C0" stroke="none" x="105" y="694" width="174.58447265625" height="44" opacity="0.2"/></g><g transform="translate(-78,-38) scale(1,1)"><rect fill="#ffffff" stroke="none" x="88" y="687" width="184.58447265625" height="44"/></g><g transform="translate(-78,-38) scale(1,1)"><path fill="none" stroke="#000000" d="M 88 687 L 272.58447265625 687 L 272.58447265625 731 L 88 731 L 88 687 Z Z" stroke-miterlimit="10"/></g><g transform="translate(-78,-38) scale(1,1)"><rect fill="#ffffff" stroke="none" x="252.58447265625" y="697" width="13" height="16"/></g><g transform="translate(-78,-38) scale(1,1)"><path fill="none" stroke="#000000" d="M 252.58447265625 697 L 265.58447265625 697 L 265.58447265625 713 L 252.58447265625 713 L 252.58447265625 697 Z Z" stroke-miterlimit="10"/></g><g transform="translate(-78,-38) scale(1,1)"><rect fill="#ffffff" stroke="none" x="249.58447265625" y="700" width="7" height="4"/></g><g transform="translate(-78,-38) scale(1,1)"><path fill="none" stroke="#000000" d="M 249.58447265625 700 L 256.58447265625 700 L 256.58447265625 704 L 249.58447265625 704 L 249.58447265625 700 Z Z" stroke-miterlimit="10"/></g><g transform="translate(-78,-38) scale(1,1)"><rect fill="#ffffff" stroke="none" x="249.58447265625" y="706" width="7" height="4"/></g><g transform="translate(-78,-38) scale(1,1)"><path fill="none" stroke="#000000" d="M 249.58447265625 706 L 256.58447265625 706 L 256.58447265625 710 L 249.58447265625 710 L 249.58447265625 706 Z Z" stroke-miterlimit="10"/></g><g transform="translate(-78,-38) scale(1,1)"><g><path fill="none" stroke="none"/><text fill="#000000" stroke="none" font-family="Arial" font-size="13px" font-style="normal" font-weight="normal" text-decoration="none" x="154.562255859375" y="704.5">«UI»</text></g></g><g transform="translate(-78,-38) scale(1,1)"><g><path fill="none" stroke="none"/><text fill="#000000" stroke="none" font-family="Arial" font-size="13px" font-style="normal" font-weight="bold" text-decoration="none" x="141.92724609375" y="719.5">BuyForm</text></g></g><g transform="translate(-78,-38) scale(1,1)"><rect fill="#C0C0C0" stroke="none" x="105" y="907" width="174.58447265625" height="44" opacity="0.2"/></g><g transform="translate(-78,-38) scale(1,1)"><rect fill="#ffffff" stroke="none" x="88" y="900" width="184.58447265625" height="44"/></g><g transform="translate(-78,-38) scale(1,1)"><path fill="none" stroke="#000000" d="M 88 900 L 272.58447265625 900 L 272.58447265625 944 L 88 944 L 88 900 Z Z" stroke-miterlimit="10"/></g><g transform="translate(-78,-38) scale(1,1)"><rect fill="#ffffff" stroke="none" x="252.58447265625" y="910" width="13" height="16"/></g><g transform="translate(-78,-38) scale(1,1)"><path fill="none" stroke="#000000" d="M 252.58447265625 910 L 265.58447265625 910 L 265.58447265625 926 L 252.58447265625 926 L 252.58447265625 910 Z Z" stroke-miterlimit="10"/></g><g transform="translate(-78,-38) scale(1,1)"><rect fill="#ffffff" stroke="none" x="249.58447265625" y="913" width="7" height="4"/></g><g transform="translate(-78,-38) scale(1,1)"><path fill="none" stroke="#000000" d="M 249.58447265625 913 L 256.58447265625 913 L 256.58447265625 917 L 249.58447265625 917 L 249.58447265625 913 Z Z" stroke-miterlimit="10"/></g><g transform="translate(-78,-38) scale(1,1)"><rect fill="#ffffff" stroke="none" x="249.58447265625" y="919" width="7" height="4"/></g><g transform="translate(-78,-38) scale(1,1)"><path fill="none" stroke="#000000" d="M 249.58447265625 919 L 256.58447265625 919 L 256.58447265625 923 L 249.58447265625 923 L 249.58447265625 919 Z Z" stroke-miterlimit="10"/></g><g transform="translate(-78,-38) scale(1,1)"><g><path fill="none" stroke="none"/><text fill="#000000" stroke="none" font-family="Arial" font-size="13px" font-style="normal" font-weight="normal" text-decoration="none" x="154.562255859375" y="917.5">«UI»</text></g></g><g transform="translate(-78,-38) scale(1,1)"><g><path fill="none" stroke="none"/><text fill="#000000" stroke="none" font-family="Arial" font-size="13px" font-style="normal" font-weight="bold" text-decoration="none" x="126.753173828125" y="932.5">MessageForm</text></g></g><g transform="translate(-78,-38) scale(1,1)"><rect fill="#C0C0C0" stroke="none" x="105" y="410" width="174.58447265625" height="44" opacity="0.2"/></g><g transform="translate(-78,-38) scale(1,1)"><rect fill="#ffffff" stroke="none" x="88" y="403" width="184.58447265625" height="44"/></g><g transform="translate(-78,-38) scale(1,1)"><path fill="none" stroke="#000000" d="M 88 403 L 272.58447265625 403 L 272.58447265625 447 L 88 447 L 88 403 Z Z" stroke-miterlimit="10"/></g><g transform="translate(-78,-38) scale(1,1)"><rect fill="#ffffff" stroke="none" x="252.58447265625" y="413" width="13" height="16"/></g><g transform="translate(-78,-38) scale(1,1)"><path fill="none" stroke="#000000" d="M 252.58447265625 413 L 265.58447265625 413 L 265.58447265625 429 L 252.58447265625 429 L 252.58447265625 413 Z Z" stroke-miterlimit="10"/></g><g transform="translate(-78,-38) scale(1,1)"><rect fill="#ffffff" stroke="none" x="249.58447265625" y="416" width="7" height="4"/></g><g transform="translate(-78,-38) scale(1,1)"><path fill="none" stroke="#000000" d="M 249.58447265625 416 L 256.58447265625 416 L 256.58447265625 420 L 249.58447265625 420 L 249.58447265625 416 Z Z" stroke-miterlimit="10"/></g><g transform="translate(-78,-38) scale(1,1)"><rect fill="#ffffff" stroke="none" x="249.58447265625" y="422" width="7" height="4"/></g><g transform="translate(-78,-38) scale(1,1)"><path fill="none" stroke="#000000" d="M 249.58447265625 422 L 256.58447265625 422 L 256.58447265625 426 L 249.58447265625 426 L 249.58447265625 422 Z Z" stroke-miterlimit="10"/></g><g transform="translate(-78,-38) scale(1,1)"><g><path fill="none" stroke="none"/><text fill="#000000" stroke="none" font-family="Arial" font-size="13px" font-style="normal" font-weight="normal" text-decoration="none" x="154.562255859375" y="420.5">«UI»</text></g></g><g transform="translate(-78,-38) scale(1,1)"><g><path fill="none" stroke="none"/><text fill="#000000" stroke="none" font-family="Arial" font-size="13px" font-style="normal" font-weight="bold" text-decoration="none" x="101.819580078125" y="435.5">ChangePasswordForm</text></g></g><g transform="translate(-78,-38) scale(1,1)"><rect fill="#C0C0C0" stroke="none" x="105" y="623" width="174.58447265625" height="44" opacity="0.2"/></g><g transform="translate(-78,-38) scale(1,1)"><rect fill="#ffffff" stroke="none" x="88" y="616" width="184.58447265625" height="44"/></g><g transform="translate(-78,-38) scale(1,1)"><path fill="none" stroke="#000000" d="M 88 616 L 272.58447265625 616 L 272.58447265625 660 L 88 660 L 88 616 Z Z" stroke-miterlimit="10"/></g><g transform="translate(-78,-38) scale(1,1)"><rect fill="#ffffff" stroke="none" x="252.58447265625" y="626" width="13" height="16"/></g><g transform="translate(-78,-38) scale(1,1)"><path fill="none" stroke="#000000" d="M 252.58447265625 626 L 265.58447265625 626 L 265.58447265625 642 L 252.58447265625 642 L 252.58447265625 626 Z Z" stroke-miterlimit="10"/></g><g transform="translate(-78,-38) scale(1,1)"><rect fill="#ffffff" stroke="none" x="249.58447265625" y="629" width="7" height="4"/></g><g transform="translate(-78,-38) scale(1,1)"><path fill="none" stroke="#000000" d="M 249.58447265625 629 L 256.58447265625 629 L 256.58447265625 633 L 249.58447265625 633 L 249.58447265625 629 Z Z" stroke-miterlimit="10"/></g><g transform="translate(-78,-38) scale(1,1)"><rect fill="#ffffff" stroke="none" x="249.58447265625" y="635" width="7" height="4"/></g><g transform="translate(-78,-38) scale(1,1)"><path fill="none" stroke="#000000" d="M 249.58447265625 635 L 256.58447265625 635 L 256.58447265625 639 L 249.58447265625 639 L 249.58447265625 635 Z Z" stroke-miterlimit="10"/></g><g transform="translate(-78,-38) scale(1,1)"><g><path fill="none" stroke="none"/><text fill="#000000" stroke="none" font-family="Arial" font-size="13px" font-style="normal" font-weight="normal" text-decoration="none" x="154.562255859375" y="633.5">«UI»</text></g></g><g transform="translate(-78,-38) scale(1,1)"><g><path fill="none" stroke="none"/><text fill="#000000" stroke="none" font-family="Arial" font-size="13px" font-style="normal" font-weight="bold" text-decoration="none" x="136.5126953125" y="648.5">OrderForm</text></g></g><g transform="translate(-78,-38) scale(1,1)"><rect fill="#C0C0C0" stroke="none" x="105" y="339" width="174.58447265625" height="44" opacity="0.2"/></g><g transform="translate(-78,-38) scale(1,1)"><rect fill="#ffffff" stroke="none" x="88" y="332" width="184.58447265625" height="44"/></g><g transform="translate(-78,-38) scale(1,1)"><path fill="none" stroke="#000000" d="M 88 332 L 272.58447265625 332 L 272.58447265625 376 L 88 376 L 88 332 Z Z" stroke-miterlimit="10"/></g><g transform="translate(-78,-38) scale(1,1)"><rect fill="#ffffff" stroke="none" x="252.58447265625" y="342" width="13" height="16"/></g><g transform="translate(-78,-38) scale(1,1)"><path fill="none" stroke="#000000" d="M 252.58447265625 342 L 265.58447265625 342 L 265.58447265625 358 L 252.58447265625 358 L 252.58447265625 342 Z Z" stroke-miterlimit="10"/></g><g transform="translate(-78,-38) scale(1,1)"><rect fill="#ffffff" stroke="none" x="249.58447265625" y="345" width="7" height="4"/></g><g transform="translate(-78,-38) scale(1,1)"><path fill="none" stroke="#000000" d="M 249.58447265625 345 L 256.58447265625 345 L 256.58447265625 349 L 249.58447265625 349 L 249.58447265625 345 Z Z" stroke-miterlimit="10"/></g><g transform="translate(-78,-38) scale(1,1)"><rect fill="#ffffff" stroke="none" x="249.58447265625" y="351" width="7" height="4"/></g><g transform="translate(-78,-38) scale(1,1)"><path fill="none" stroke="#000000" d="M 249.58447265625 351 L 256.58447265625 351 L 256.58447265625 355 L 249.58447265625 355 L 249.58447265625 351 Z Z" stroke-miterlimit="10"/></g><g transform="translate(-78,-38) scale(1,1)"><g><path fill="none" stroke="none"/><text fill="#000000" stroke="none" font-family="Arial" font-size="13px" font-style="normal" font-weight="normal" text-decoration="none" x="154.562255859375" y="349.5">«UI»</text></g></g><g transform="translate(-78,-38) scale(1,1)"><g><path fill="none" stroke="none"/><text fill="#000000" stroke="none" font-family="Arial" font-size="13px" font-style="normal" font-weight="bold" text-decoration="none" x="134.70361328125" y="364.5">ProfileForm</text></g></g><g transform="translate(-78,-38) scale(1,1)"><rect fill="#C0C0C0" stroke="none" x="105" y="836" width="174.58447265625" height="44" opacity="0.2"/></g><g transform="translate(-78,-38) scale(1,1)"><rect fill="#ffffff" stroke="none" x="88" y="829" width="184.58447265625" height="44"/></g><g transform="translate(-78,-38) scale(1,1)"><path fill="none" stroke="#000000" d="M 88 829 L 272.58447265625 829 L 272.58447265625 873 L 88 873 L 88 829 Z Z" stroke-miterlimit="10"/></g><g transform="translate(-78,-38) scale(1,1)"><rect fill="#ffffff" stroke="none" x="252.58447265625" y="839" width="13" height="16"/></g><g transform="translate(-78,-38) scale(1,1)"><path fill="none" stroke="#000000" d="M 252.58447265625 839 L 265.58447265625 839 L 265.58447265625 855 L 252.58447265625 855 L 252.58447265625 839 Z Z" stroke-miterlimit="10"/></g><g transform="translate(-78,-38) scale(1,1)"><rect fill="#ffffff" stroke="none" x="249.58447265625" y="842" width="7" height="4"/></g><g transform="translate(-78,-38) scale(1,1)"><path fill="none" stroke="#000000" d="M 249.58447265625 842 L 256.58447265625 842 L 256.58447265625 846 L 249.58447265625 846 L 249.58447265625 842 Z Z" stroke-miterlimit="10"/></g><g transform="translate(-78,-38) scale(1,1)"><rect fill="#ffffff" stroke="none" x="249.58447265625" y="848" width="7" height="4"/></g><g transform="translate(-78,-38) scale(1,1)"><path fill="none" stroke="#000000" d="M 249.58447265625 848 L 256.58447265625 848 L 256.58447265625 852 L 249.58447265625 852 L 249.58447265625 848 Z Z" stroke-miterlimit="10"/></g><g transform="translate(-78,-38) scale(1,1)"><g><path fill="none" stroke="none"/><text fill="#000000" stroke="none" font-family="Arial" font-size="13px" font-style="normal" font-weight="normal" text-decoration="none" x="154.562255859375" y="846.5">«UI»</text></g></g><g transform="translate(-78,-38) scale(1,1)"><g><path fill="none" stroke="none"/><text fill="#000000" stroke="none" font-family="Arial" font-size="13px" font-style="normal" font-weight="bold" text-decoration="none" x="111.582275390625" y="861.5">ModifyProductForm</text></g></g><g transform="translate(-78,-38) scale(1,1)"><rect fill="#C0C0C0" stroke="none" x="105" y="552" width="174.58447265625" height="44" opacity="0.2"/></g><g transform="translate(-78,-38) scale(1,1)"><rect fill="#ffffff" stroke="none" x="88" y="545" width="184.58447265625" height="44"/></g><g transform="translate(-78,-38) scale(1,1)"><path fill="none" stroke="#000000" d="M 88 545 L 272.58447265625 545 L 272.58447265625 589 L 88 589 L 88 545 Z Z" stroke-miterlimit="10"/></g><g transform="translate(-78,-38) scale(1,1)"><rect fill="#ffffff" stroke="none" x="252.58447265625" y="555" width="13" height="16"/></g><g transform="translate(-78,-38) scale(1,1)"><path fill="none" stroke="#000000" d="M 252.58447265625 555 L 265.58447265625 555 L 265.58447265625 571 L 252.58447265625 571 L 252.58447265625 555 Z Z" stroke-miterlimit="10"/></g><g transform="translate(-78,-38) scale(1,1)"><rect fill="#ffffff" stroke="none" x="249.58447265625" y="558" width="7" height="4"/></g><g transform="translate(-78,-38) scale(1,1)"><path fill="none" stroke="#000000" d="M 249.58447265625 558 L 256.58447265625 558 L 256.58447265625 562 L 249.58447265625 562 L 249.58447265625 558 Z Z" stroke-miterlimit="10"/></g><g transform="translate(-78,-38) scale(1,1)"><rect fill="#ffffff" stroke="none" x="249.58447265625" y="564" width="7" height="4"/></g><g transform="translate(-78,-38) scale(1,1)"><path fill="none" stroke="#000000" d="M 249.58447265625 564 L 256.58447265625 564 L 256.58447265625 568 L 249.58447265625 568 L 249.58447265625 564 Z Z" stroke-miterlimit="10"/></g><g transform="translate(-78,-38) scale(1,1)"><g><path fill="none" stroke="none"/><text fill="#000000" stroke="none" font-family="Arial" font-size="13px" font-style="normal" font-weight="normal" text-decoration="none" x="154.562255859375" y="562.5">«UI»</text></g></g><g transform="translate(-78,-38) scale(1,1)"><g><path fill="none" stroke="none"/><text fill="#000000" stroke="none" font-family="Arial" font-size="13px" font-style="normal" font-weight="bold" text-decoration="none" x="110.128662109375" y="577.5">UploadProductForm</text></g></g><g transform="translate(-78,-38) scale(1,1)"><rect fill="#C0C0C0" stroke="none" x="105" y="481" width="174.58447265625" height="44" opacity="0.2"/></g><g transform="translate(-78,-38) scale(1,1)"><rect fill="#ffffff" stroke="none" x="88" y="474" width="184.58447265625" height="44"/></g><g transform="translate(-78,-38) scale(1,1)"><path fill="none" stroke="#000000" d="M 88 474 L 272.58447265625 474 L 272.58447265625 518 L 88 518 L 88 474 Z Z" stroke-miterlimit="10"/></g><g transform="translate(-78,-38) scale(1,1)"><rect fill="#ffffff" stroke="none" x="252.58447265625" y="484" width="13" height="16"/></g><g transform="translate(-78,-38) scale(1,1)"><path fill="none" stroke="#000000" d="M 252.58447265625 484 L 265.58447265625 484 L 265.58447265625 500 L 252.58447265625 500 L 252.58447265625 484 Z Z" stroke-miterlimit="10"/></g><g transform="translate(-78,-38) scale(1,1)"><rect fill="#ffffff" stroke="none" x="249.58447265625" y="487" width="7" height="4"/></g><g transform="translate(-78,-38) scale(1,1)"><path fill="none" stroke="#000000" d="M 249.58447265625 487 L 256.58447265625 487 L 256.58447265625 491 L 249.58447265625 491 L 249.58447265625 487 Z Z" stroke-miterlimit="10"/></g><g transform="translate(-78,-38) scale(1,1)"><rect fill="#ffffff" stroke="none" x="249.58447265625" y="493" width="7" height="4"/></g><g transform="translate(-78,-38) scale(1,1)"><path fill="none" stroke="#000000" d="M 249.58447265625 493 L 256.58447265625 493 L 256.58447265625 497 L 249.58447265625 497 L 249.58447265625 493 Z Z" stroke-miterlimit="10"/></g><g transform="translate(-78,-38) scale(1,1)"><g><path fill="none" stroke="none"/><text fill="#000000" stroke="none" font-family="Arial" font-size="13px" font-style="normal" font-weight="normal" text-decoration="none" x="154.562255859375" y="491.5">«UI»</text></g></g><g transform="translate(-78,-38) scale(1,1)"><g><path fill="none" stroke="none"/><text fill="#000000" stroke="none" font-family="Arial" font-size="13px" font-style="normal" font-weight="bold" text-decoration="none" x="142.2890625" y="506.5">SellForm</text></g></g><g transform="translate(-78,-38) scale(1,1)"><rect fill="#C0C0C0" stroke="none" x="105" y="268" width="174.58447265625" height="44" opacity="0.2"/></g><g transform="translate(-78,-38) scale(1,1)"><rect fill="#ffffff" stroke="none" x="88" y="261" width="184.58447265625" height="44"/></g><g transform="translate(-78,-38) scale(1,1)"><path fill="none" stroke="#000000" d="M 88 261 L 272.58447265625 261 L 272.58447265625 305 L 88 305 L 88 261 Z Z" stroke-miterlimit="10"/></g><g transform="translate(-78,-38) scale(1,1)"><rect fill="#ffffff" stroke="none" x="252.58447265625" y="271" width="13" height="16"/></g><g transform="translate(-78,-38) scale(1,1)"><path fill="none" stroke="#000000" d="M 252.58447265625 271 L 265.58447265625 271 L 265.58447265625 287 L 252.58447265625 287 L 252.58447265625 271 Z Z" stroke-miterlimit="10"/></g><g transform="translate(-78,-38) scale(1,1)"><rect fill="#ffffff" stroke="none" x="249.58447265625" y="274" width="7" height="4"/></g><g transform="translate(-78,-38) scale(1,1)"><path fill="none" stroke="#000000" d="M 249.58447265625 274 L 256.58447265625 274 L 256.58447265625 278 L 249.58447265625 278 L 249.58447265625 274 Z Z" stroke-miterlimit="10"/></g><g transform="translate(-78,-38) scale(1,1)"><rect fill="#ffffff" stroke="none" x="249.58447265625" y="280" width="7" height="4"/></g><g transform="translate(-78,-38) scale(1,1)"><path fill="none" stroke="#000000" d="M 249.58447265625 280 L 256.58447265625 280 L 256.58447265625 284 L 249.58447265625 284 L 249.58447265625 280 Z Z" stroke-miterlimit="10"/></g><g transform="translate(-78,-38) scale(1,1)"><g><path fill="none" stroke="none"/><text fill="#000000" stroke="none" font-family="Arial" font-size="13px" font-style="normal" font-weight="normal" text-decoration="none" x="154.562255859375" y="278.5">«UI»</text></g></g><g transform="translate(-78,-38) scale(1,1)"><g><path fill="none" stroke="none"/><text fill="#000000" stroke="none" font-family="Arial" font-size="13px" font-style="normal" font-weight="bold" text-decoration="none" x="117.3681640625" y="293.5">NotifyOwnerForm</text></g></g><g transform="translate(-78,-38) scale(1,1)"><rect fill="#C0C0C0" stroke="none" x="537" y="79" width="114.6689453125" height="37" opacity="0.2"/></g><g transform="translate(-78,-38) scale(1,1)"><rect fill="#ffffff" stroke="none" x="520" y="72" width="124.6689453125" height="37"/></g><g transform="translate(-78,-38) scale(1,1)"><path fill="none" stroke="#000000" d="M 520 72 L 644.6689453125 72 L 644.6689453125 109 L 520 109 L 520 72 Z Z" stroke-miterlimit="10"/></g><g transform="translate(-78,-38) scale(1,1)"><rect fill="#ffffff" stroke="none" x="624.6689453125" y="82" width="13" height="16"/></g><g transform="translate(-78,-38) scale(1,1)"><path fill="none" stroke="#000000" d="M 624.6689453125 82 L 637.6689453125 82 L 637.6689453125 98 L 624.6689453125 98 L 624.6689453125 82 Z Z" stroke-miterlimit="10"/></g><g transform="translate(-78,-38) scale(1,1)"><rect fill="#ffffff" stroke="none" x="621.6689453125" y="85" width="7" height="4"/></g><g transform="translate(-78,-38) scale(1,1)"><path fill="none" stroke="#000000" d="M 621.6689453125 85 L 628.6689453125 85 L 628.6689453125 89 L 621.6689453125 89 L 621.6689453125 85 Z Z" stroke-miterlimit="10"/></g><g transform="translate(-78,-38) scale(1,1)"><rect fill="#ffffff" stroke="none" x="621.6689453125" y="91" width="7" height="4"/></g><g transform="translate(-78,-38) scale(1,1)"><path fill="none" stroke="#000000" d="M 621.6689453125 91 L 628.6689453125 91 L 628.6689453125 95 L 621.6689453125 95 L 621.6689453125 91 Z Z" stroke-miterlimit="10"/></g><g transform="translate(-78,-38) scale(1,1)"><g><path fill="none" stroke="none"/><text fill="#000000" stroke="none" font-family="Arial" font-size="13px" font-style="normal" font-weight="normal" text-decoration="none" x="529.5" y="89.5">«Component»</text></g></g><g transform="translate(-78,-38) scale(1,1)"><g><path fill="none" stroke="none"/><text fill="#000000" stroke="none" font-family="Arial" font-size="13px" font-style="normal" font-weight="bold" text-decoration="none" x="547.581298828125" y="104.5">UserDB</text></g></g><g transform="translate(-78,-38) scale(1,1)"><rect fill="#C0C0C0" stroke="none" x="537" y="483" width="114.6689453125" height="37" opacity="0.2"/></g><g transform="translate(-78,-38) scale(1,1)"><rect fill="#ffffff" stroke="none" x="520" y="476" width="124.6689453125" height="37"/></g><g transform="translate(-78,-38) scale(1,1)"><path fill="none" stroke="#000000" d="M 520 476 L 644.6689453125 476 L 644.6689453125 513 L 520 513 L 520 476 Z Z" stroke-miterlimit="10"/></g><g transform="translate(-78,-38) scale(1,1)"><rect fill="#ffffff" stroke="none" x="624.6689453125" y="486" width="13" height="16"/></g><g transform="translate(-78,-38) scale(1,1)"><path fill="none" stroke="#000000" d="M 624.6689453125 486 L 637.6689453125 486 L 637.6689453125 502 L 624.6689453125 502 L 624.6689453125 486 Z Z" stroke-miterlimit="10"/></g><g transform="translate(-78,-38) scale(1,1)"><rect fill="#ffffff" stroke="none" x="621.6689453125" y="489" width="7" height="4"/></g><g transform="translate(-78,-38) scale(1,1)"><path fill="none" stroke="#000000" d="M 621.6689453125 489 L 628.6689453125 489 L 628.6689453125 493 L 621.6689453125 493 L 621.6689453125 489 Z Z" stroke-miterlimit="10"/></g><g transform="translate(-78,-38) scale(1,1)"><rect fill="#ffffff" stroke="none" x="621.6689453125" y="495" width="7" height="4"/></g><g transform="translate(-78,-38) scale(1,1)"><path fill="none" stroke="#000000" d="M 621.6689453125 495 L 628.6689453125 495 L 628.6689453125 499 L 621.6689453125 499 L 621.6689453125 495 Z Z" stroke-miterlimit="10"/></g><g transform="translate(-78,-38) scale(1,1)"><g><path fill="none" stroke="none"/><text fill="#000000" stroke="none" font-family="Arial" font-size="13px" font-style="normal" font-weight="normal" text-decoration="none" x="529.5" y="493.5">«Component»</text></g></g><g transform="translate(-78,-38) scale(1,1)"><g><path fill="none" stroke="none"/><text fill="#000000" stroke="none" font-family="Arial" font-size="13px" font-style="normal" font-weight="bold" text-decoration="none" x="538.904052734375" y="508.5">ProductDB</text></g></g><g transform="translate(-78,-38) scale(1,1)"><rect fill="#C0C0C0" stroke="none" x="537" y="685" width="114.6689453125" height="37" opacity="0.2"/></g><g transform="translate(-78,-38) scale(1,1)"><rect fill="#ffffff" stroke="none" x="520" y="678" width="124.6689453125" height="37"/></g><g transform="translate(-78,-38) scale(1,1)"><path fill="none" stroke="#000000" d="M 520 678 L 644.6689453125 678 L 644.6689453125 715 L 520 715 L 520 678 Z Z" stroke-miterlimit="10"/></g><g transform="translate(-78,-38) scale(1,1)"><rect fill="#ffffff" stroke="none" x="624.6689453125" y="688" width="13" height="16"/></g><g transform="translate(-78,-38) scale(1,1)"><path fill="none" stroke="#000000" d="M 624.6689453125 688 L 637.6689453125 688 L 637.6689453125 704 L 624.6689453125 704 L 624.6689453125 688 Z Z" stroke-miterlimit="10"/></g><g transform="translate(-78,-38) scale(1,1)"><rect fill="#ffffff" stroke="none" x="621.6689453125" y="691" width="7" height="4"/></g><g transform="translate(-78,-38) scale(1,1)"><path fill="none" stroke="#000000" d="M 621.6689453125 691 L 628.6689453125 691 L 628.6689453125 695 L 621.6689453125 695 L 621.6689453125 691 Z Z" stroke-miterlimit="10"/></g><g transform="translate(-78,-38) scale(1,1)"><rect fill="#ffffff" stroke="none" x="621.6689453125" y="697" width="7" height="4"/></g><g transform="translate(-78,-38) scale(1,1)"><path fill="none" stroke="#000000" d="M 621.6689453125 697 L 628.6689453125 697 L 628.6689453125 701 L 621.6689453125 701 L 621.6689453125 697 Z Z" stroke-miterlimit="10"/></g><g transform="translate(-78,-38) scale(1,1)"><g><path fill="none" stroke="none"/><text fill="#000000" stroke="none" font-family="Arial" font-size="13px" font-style="normal" font-weight="normal" text-decoration="none" x="529.5" y="695.5">«Component»</text></g></g><g transform="translate(-78,-38) scale(1,1)"><g><path fill="none" stroke="none"/><text fill="#000000" stroke="none" font-family="Arial" font-size="13px" font-style="normal" font-weight="bold" text-decoration="none" x="534.930419921875" y="710.5">MessageDB</text></g></g><g transform="translate(-78,-38) scale(1,1)"><rect fill="#C0C0C0" stroke="none" x="537" y="281" width="114.6689453125" height="37" opacity="0.2"/></g><g transform="translate(-78,-38) scale(1,1)"><rect fill="#ffffff" stroke="none" x="520" y="274" width="124.6689453125" height="37"/></g><g transform="translate(-78,-38) scale(1,1)"><path fill="none" stroke="#000000" d="M 520 274 L 644.6689453125 274 L 644.6689453125 311 L 520 311 L 520 274 Z Z" stroke-miterlimit="10"/></g><g transform="translate(-78,-38) scale(1,1)"><rect fill="#ffffff" stroke="none" x="624.6689453125" y="284" width="13" height="16"/></g><g transform="translate(-78,-38) scale(1,1)"><path fill="none" stroke="#000000" d="M 624.6689453125 284 L 637.6689453125 284 L 637.6689453125 300 L 624.6689453125 300 L 624.6689453125 284 Z Z" stroke-miterlimit="10"/></g><g transform="translate(-78,-38) scale(1,1)"><rect fill="#ffffff" stroke="none" x="621.6689453125" y="287" width="7" height="4"/></g><g transform="translate(-78,-38) scale(1,1)"><path fill="none" stroke="#000000" d="M 621.6689453125 287 L 628.6689453125 287 L 628.6689453125 291 L 621.6689453125 291 L 621.6689453125 287 Z Z" stroke-miterlimit="10"/></g><g transform="translate(-78,-38) scale(1,1)"><rect fill="#ffffff" stroke="none" x="621.6689453125" y="293" width="7" height="4"/></g><g transform="translate(-78,-38) scale(1,1)"><path fill="none" stroke="#000000" d="M 621.6689453125 293 L 628.6689453125 293 L 628.6689453125 297 L 621.6689453125 297 L 621.6689453125 293 Z Z" stroke-miterlimit="10"/></g><g transform="translate(-78,-38) scale(1,1)"><g><path fill="none" stroke="none"/><text fill="#000000" stroke="none" font-family="Arial" font-size="13px" font-style="normal" font-weight="normal" text-decoration="none" x="529.5" y="291.5">«Component»</text></g></g><g transform="translate(-78,-38) scale(1,1)"><g><path fill="none" stroke="none"/><text fill="#000000" stroke="none" font-family="Arial" font-size="13px" font-style="normal" font-weight="bold" text-decoration="none" x="550.1044921875" y="306.5">BuyDB</text></g></g><g transform="translate(-78,-38) scale(1,1)"><rect fill="#C0C0C0" stroke="none" x="537" y="887" width="114.6689453125" height="37" opacity="0.2"/></g><g transform="translate(-78,-38) scale(1,1)"><rect fill="#ffffff" stroke="none" x="520" y="880" width="124.6689453125" height="37"/></g><g transform="translate(-78,-38) scale(1,1)"><path fill="none" stroke="#000000" d="M 520 880 L 644.6689453125 880 L 644.6689453125 917 L 520 917 L 520 880 Z Z" stroke-miterlimit="10"/></g><g transform="translate(-78,-38) scale(1,1)"><rect fill="#ffffff" stroke="none" x="624.6689453125" y="890" width="13" height="16"/></g><g transform="translate(-78,-38) scale(1,1)"><path fill="none" stroke="#000000" d="M 624.6689453125 890 L 637.6689453125 890 L 637.6689453125 906 L 624.6689453125 906 L 624.6689453125 890 Z Z" stroke-miterlimit="10"/></g><g transform="translate(-78,-38) scale(1,1)"><rect fill="#ffffff" stroke="none" x="621.6689453125" y="893" width="7" height="4"/></g><g transform="translate(-78,-38) scale(1,1)"><path fill="none" stroke="#000000" d="M 621.6689453125 893 L 628.6689453125 893 L 628.6689453125 897 L 621.6689453125 897 L 621.6689453125 893 Z Z" stroke-miterlimit="10"/></g><g transform="translate(-78,-38) scale(1,1)"><rect fill="#ffffff" stroke="none" x="621.6689453125" y="899" width="7" height="4"/></g><g transform="translate(-78,-38) scale(1,1)"><path fill="none" stroke="#000000" d="M 621.6689453125 899 L 628.6689453125 899 L 628.6689453125 903 L 621.6689453125 903 L 621.6689453125 899 Z Z" stroke-miterlimit="10"/></g><g transform="translate(-78,-38) scale(1,1)"><g><path fill="none" stroke="none"/><text fill="#000000" stroke="none" font-family="Arial" font-size="13px" font-style="normal" font-weight="normal" text-decoration="none" x="529.5" y="897.5">«Component»</text></g></g><g transform="translate(-78,-38) scale(1,1)"><g><path fill="none" stroke="none"/><text fill="#000000" stroke="none" font-family="Arial" font-size="13px" font-style="normal" font-weight="bold" text-decoration="none" x="544.324951171875" y="912.5">ScoreDB</text></g></g><g transform="translate(-78,-38) scale(1,1)"><rect fill="#C0C0C0" stroke="none" x="889" y="439" width="181" height="44" opacity="0.2"/></g><g transform="translate(-78,-38) scale(1,1)"><rect fill="#ffffff" stroke="none" x="872" y="432" width="191" height="44"/></g><g transform="translate(-78,-38) scale(1,1)"><path fill="none" stroke="#000000" d="M 872 432 L 1063 432 L 1063 476 L 872 476 L 872 432 Z Z" stroke-miterlimit="10"/></g><g transform="translate(-78,-38) scale(1,1)"><rect fill="#ffffff" stroke="none" x="1043" y="442" width="13" height="16"/></g><g transform="translate(-78,-38) scale(1,1)"><path fill="none" stroke="#000000" d="M 1043 442 L 1056 442 L 1056 458 L 1043 458 L 1043 442 Z Z" stroke-miterlimit="10"/></g><g transform="translate(-78,-38) scale(1,1)"><rect fill="#ffffff" stroke="none" x="1040" y="445" width="7" height="4"/></g><g transform="translate(-78,-38) scale(1,1)"><path fill="none" stroke="#000000" d="M 1040 445 L 1047 445 L 1047 449 L 1040 449 L 1040 445 Z Z" stroke-miterlimit="10"/></g><g transform="translate(-78,-38) scale(1,1)"><rect fill="#ffffff" stroke="none" x="1040" y="451" width="7" height="4"/></g><g transform="translate(-78,-38) scale(1,1)"><path fill="none" stroke="#000000" d="M 1040 451 L 1047 451 L 1047 455 L 1040 455 L 1040 451 Z Z" stroke-miterlimit="10"/></g><g transform="translate(-78,-38) scale(1,1)"><g><path fill="none" stroke="none"/><text fill="#000000" stroke="none" font-family="Arial" font-size="13px" font-style="normal" font-weight="normal" text-decoration="none" x="914.66552734375" y="449.5">«Component»</text></g></g><g transform="translate(-78,-38) scale(1,1)"><g><path fill="none" stroke="none"/><text fill="#000000" stroke="none" font-family="Arial" font-size="13px" font-style="normal" font-weight="bold" text-decoration="none" x="931.655029296875" y="464.5">BaseDB</text></g></g><g transform="translate(-78,-38) scale(1,1)"><rect fill="#C0C0C0" stroke="none" x="889" y="543" width="181" height="69" opacity="0.2"/></g><g transform="translate(-78,-38) scale(1,1)"><rect fill="#ffffff" stroke="none" x="872" y="536" width="191" height="69"/></g><g transform="translate(-78,-38) scale(1,1)"><path fill="none" stroke="#000000" d="M 872 536 L 1063 536 L 1063 605 L 872 605 L 872 536 Z Z" stroke-miterlimit="10"/></g><g transform="translate(-78,-38) scale(1,1)"><rect fill="#ffffff" stroke="none" x="1043" y="546" width="13" height="16"/></g><g transform="translate(-78,-38) scale(1,1)"><path fill="none" stroke="#000000" d="M 1043 546 L 1056 546 L 1056 562 L 1043 562 L 1043 546 Z Z" stroke-miterlimit="10"/></g><g transform="translate(-78,-38) scale(1,1)"><rect fill="#ffffff" stroke="none" x="1040" y="549" width="7" height="4"/></g><g transform="translate(-78,-38) scale(1,1)"><path fill="none" stroke="#000000" d="M 1040 549 L 1047 549 L 1047 553 L 1040 553 L 1040 549 Z Z" stroke-miterlimit="10"/></g><g transform="translate(-78,-38) scale(1,1)"><rect fill="#ffffff" stroke="none" x="1040" y="555" width="7" height="4"/></g><g transform="translate(-78,-38) scale(1,1)"><path fill="none" stroke="#000000" d="M 1040 555 L 1047 555 L 1047 559 L 1040 559 L 1040 555 Z Z" stroke-miterlimit="10"/></g><g transform="translate(-78,-38) scale(1,1)"><g><path fill="none" stroke="none"/><text fill="#000000" stroke="none" font-family="Arial" font-size="13px" font-style="normal" font-weight="normal" text-decoration="none" x="919.724609375" y="553.5">«DataBase»</text></g></g><g transform="translate(-78,-38) scale(1,1)"><g><path fill="none" stroke="none"/><text fill="#000000" stroke="none" font-family="Arial" font-size="13px" font-style="normal" font-weight="bold" text-decoration="none" x="926.595947265625" y="568.5">MongoDB</text></g></g><g transform="translate(-78,-38) scale(1,1)"><path fill="#C0C0C0" stroke="none" d="M 1126.66357421875 570.5 C 1126.66357421875 564.1487248 1131.81229901875 559 1138.16357421875 559 C 1144.51484941875 559 1149.66357421875 564.1487248 1149.66357421875 570.5 C 1149.66357421875 576.8512752 1144.51484941875 582 1138.16357421875 582 C 1131.81229901875 582 1126.66357421875 576.8512752 1126.66357421875 570.5 Z" opacity="0.2"/></g><g transform="translate(-78,-38) scale(1,1)"><path fill="none" stroke="#000000" d="M 1119.905216055766 566.0258501666093 A 11.5 11.5 0 0 1 1142.094783944234 559.9741498333907" stroke-miterlimit="10"/></g><g transform="translate(-78,-38) scale(1,1)"><path fill="#ffffff" stroke="none" d="M 1122.66357421875 563.5 C 1122.66357421875 558.8055792 1126.46915341875 555 1131.16357421875 555 C 1135.85799501875 555 1139.66357421875 558.8055792 1139.66357421875 563.5 C 1139.66357421875 568.1944208 1135.85799501875 572 1131.16357421875 572 C 1126.46915341875 572 1122.66357421875 568.1944208 1122.66357421875 563.5 Z"/></g><g transform="translate(-78,-38) scale(1,1)"><path fill="none" stroke="#000000" d="M 1122.66357421875 563.5 C 1122.66357421875 558.8055792 1126.46915341875 555 1131.16357421875 555 C 1135.85799501875 555 1139.66357421875 558.8055792 1139.66357421875 563.5 C 1139.66357421875 568.1944208 1135.85799501875 572 1131.16357421875 572 C 1126.46915341875 572 1122.66357421875 568.1944208 1122.66357421875 563.5 Z" stroke-miterlimit="10"/></g><g transform="translate(-78,-38) scale(1,1)"><g><path fill="none" stroke="none"/><text fill="#000000" stroke="none" font-family="Arial" font-size="13px" font-style="normal" font-weight="bold" text-decoration="none" x="1094.67724609375" y="594.5">Data Access</text></g></g><g transform="translate(-78,-38) scale(1,1)"><path fill="none" stroke="#000000" d="M 1063 563 L 1119.66357421875 563" stroke-miterlimit="10"/></g><g transform="translate(-78,-38) scale(1,1)"><path fill="none" stroke="#000000" d="M 1063 456 L 1128 456 L 1128 552" stroke-miterlimit="10"/></g><g transform="translate(-78,-38) scale(1,1)"><path fill="#C0C0C0" stroke="none" d="M 792.7890625 386.5 C 792.7890625 380.1487248 797.9377873 375 804.2890625 375 C 810.6403377 375 815.7890625 380.1487248 815.7890625 386.5 C 815.7890625 392.8512752 810.6403377 398 804.2890625 398 C 797.9377873 398 792.7890625 392.8512752 792.7890625 386.5 Z" opacity="0.2"/></g><g transform="translate(-78,-38) scale(1,1)"><path fill="none" stroke="#000000" d="M 804.3855284200197 387.81498553357187 A 11.5 11.5 0 0 1 789.6144715799803 370.18501446642813" stroke-miterlimit="10"/></g><g transform="translate(-78,-38) scale(1,1)"><path fill="none" stroke="#000000" d="M 807.3929851472757 383.92299296449903 A 11.5 11.5 0 0 1 786.6070148527243 374.07700703550097" stroke-miterlimit="10"/></g><g transform="translate(-78,-38) scale(1,1)"><path fill="none" stroke="#000000" d="M 795.763958805729 390.4333810470073 A 11.5 11.5 0 0 1 798.236041194271 367.5666189529927" stroke-miterlimit="10"/></g><g transform="translate(-78,-38) scale(1,1)"><path fill="none" stroke="#000000" d="M 808.0464890407675 382.1976678802222 A 11.5 11.5 0 0 1 785.9535109592325 375.8023321197778" stroke-miterlimit="10"/></g><g transform="translate(-78,-38) scale(1,1)"><path fill="none" stroke="#000000" d="M 790.6209477434098 388.5685783848852 A 11.5 11.5 0 0 1 803.3790522565902 369.4314216151148" stroke-miterlimit="10"/></g><g transform="translate(-78,-38) scale(1,1)"><path fill="#ffffff" stroke="none" d="M 788.7890625 379.5 C 788.7890625 374.8055792 792.5946417 371 797.2890625 371 C 801.9834833 371 805.7890625 374.8055792 805.7890625 379.5 C 805.7890625 384.1944208 801.9834833 388 797.2890625 388 C 792.5946417 388 788.7890625 384.1944208 788.7890625 379.5 Z"/></g><g transform="translate(-78,-38) scale(1,1)"><path fill="none" stroke="#000000" d="M 788.7890625 379.5 C 788.7890625 374.8055792 792.5946417 371 797.2890625 371 C 801.9834833 371 805.7890625 374.8055792 805.7890625 379.5 C 805.7890625 384.1944208 801.9834833 388 797.2890625 388 C 792.5946417 388 788.7890625 384.1944208 788.7890625 379.5 Z" stroke-miterlimit="10"/></g><g transform="translate(-78,-38) scale(1,1)"><g><path fill="none" stroke="none"/><text fill="#000000" stroke="none" font-family="Arial" font-size="13px" font-style="normal" font-weight="bold" text-decoration="none" x="771.2763671875" y="410.5">Get Data</text></g></g><g transform="translate(-78,-38) scale(1,1)"><path fill="none" stroke="#000000" d="M 904 431 L 808.7890625 387.3764391447368" stroke-miterlimit="10"/></g><g transform="translate(-78,-38) scale(1,1)"><path fill="#C0C0C0" stroke="none" d="M 792.594970703125 498.5 C 792.594970703125 492.1487248 797.743695503125 487 804.094970703125 487 C 810.446245903125 487 815.594970703125 492.1487248 815.594970703125 498.5 C 815.594970703125 504.8512752 810.446245903125 510 804.094970703125 510 C 797.743695503125 510 792.594970703125 504.8512752 792.594970703125 498.5 Z" opacity="0.2"/></g><g transform="translate(-78,-38) scale(1,1)"><path fill="none" stroke="#000000" d="M 800.1217918977508 502.06817127384363 A 11.5 11.5 0 0 1 793.8782081022492 479.93182872615637" stroke-miterlimit="10"/></g><g transform="translate(-78,-38) scale(1,1)"><path fill="none" stroke="#000000" d="M 806.2581421295637 497.8217889375733 A 11.5 11.5 0 0 1 787.7418578704363 484.1782110624267" stroke-miterlimit="10"/></g><g transform="translate(-78,-38) scale(1,1)"><path fill="none" stroke="#000000" d="M 792.0235927227751 501.36751516088515 A 11.5 11.5 0 0 1 801.9764072772249 480.63248483911485" stroke-miterlimit="10"/></g><g transform="translate(-78,-38) scale(1,1)"><path fill="none" stroke="#000000" d="M 807.7909458433968 494.9756116265146 A 11.5 11.5 0 0 1 786.2090541566032 487.0243883734854" stroke-miterlimit="10"/></g><g transform="translate(-78,-38) scale(1,1)"><path fill="none" stroke="#000000" d="M 789.1997788185697 499.4502396132161 A 11.5 11.5 0 0 1 804.8002211814303 482.5497603867839" stroke-miterlimit="10"/></g><g transform="translate(-78,-38) scale(1,1)"><path fill="#ffffff" stroke="none" d="M 788.594970703125 491.5 C 788.594970703125 486.8055792 792.400549903125 483 797.094970703125 483 C 801.789391503125 483 805.594970703125 486.8055792 805.594970703125 491.5 C 805.594970703125 496.1944208 801.789391503125 500 797.094970703125 500 C 792.400549903125 500 788.594970703125 496.1944208 788.594970703125 491.5 Z"/></g><g transform="translate(-78,-38) scale(1,1)"><path fill="none" stroke="#000000" d="M 788.594970703125 491.5 C 788.594970703125 486.8055792 792.400549903125 483 797.094970703125 483 C 801.789391503125 483 805.594970703125 486.8055792 805.594970703125 491.5 C 805.594970703125 496.1944208 801.789391503125 500 797.094970703125 500 C 792.400549903125 500 788.594970703125 496.1944208 788.594970703125 491.5 Z" stroke-miterlimit="10"/></g><g transform="translate(-78,-38) scale(1,1)"><g><path fill="none" stroke="none"/><text fill="#000000" stroke="none" font-family="Arial" font-size="13px" font-style="normal" font-weight="bold" text-decoration="none" x="765.302734375" y="522.5">Insert Data</text></g></g><g transform="translate(-78,-38) scale(1,1)"><path fill="none" stroke="#000000" d="M 889 477 L 808.594970703125 491.2973069411058" stroke-miterlimit="10"/></g><g transform="translate(-78,-38) scale(1,1)"><path fill="none" stroke="#000000" d="M 622 475 L 785.7890625 388.39294763513516" stroke-miterlimit="10"/></g><g transform="translate(-78,-38) scale(1,1)"><path fill="none" stroke="#000000" d="M 595 677 L 791.3157894736842 391" stroke-miterlimit="10"/></g><g transform="translate(-78,-38) scale(1,1)"><path fill="none" stroke="#000000" d="M 625 312 L 785.7890625 377.7880067567568" stroke-miterlimit="10"/></g><g transform="translate(-78,-38) scale(1,1)"><path fill="none" stroke="#000000" d="M 590 879 L 793.5263157894736 391" stroke-miterlimit="10"/></g><g transform="translate(-78,-38) scale(1,1)"><path fill="none" stroke="#000000" d="M 646 497 L 785.594970703125 494.21680313501605" stroke-miterlimit="10"/></g><g transform="translate(-78,-38) scale(1,1)"><path fill="none" stroke="#000000" d="M 603 677 L 788.1578947368421 503" stroke-miterlimit="10"/></g><g transform="translate(-78,-38) scale(1,1)"><path fill="none" stroke="#000000" d="M 602 312 L 785.594970703125 485.5255859375" stroke-miterlimit="10"/></g><g transform="translate(-78,-38) scale(1,1)"><path fill="none" stroke="#000000" d="M 592 879 L 792.578947368421 503" stroke-miterlimit="10"/></g><g transform="translate(-78,-38) scale(1,1)"><path fill="none" stroke="#000000" d="M 274 75 L 519 87" stroke-miterlimit="10" stroke-dasharray="3"/></g><g transform="translate(-78,-38) scale(1,1)"><path fill="none" stroke="#000000" d="M 508.6435597915399 90.70730983444741 L 519 87 L 509.0554269757475 82.29835482354217" stroke-miterlimit="10"/></g><g transform="translate(-78,-38) scale(1,1)"><path fill="none" stroke="#000000" d="M 274 129 L 519 98" stroke-miterlimit="10" stroke-dasharray="3"/></g><g transform="translate(-78,-38) scale(1,1)"><path fill="none" stroke="#000000" d="M 509.44613300695465 103.45193777286558 L 519 98 L 508.38929369286296 95.09949803246363" stroke-miterlimit="10"/></g><g transform="translate(-78,-38) scale(1,1)"><path fill="none" stroke="#000000" d="M 592 110 L 785.594970703125 480.47228064903845" stroke-miterlimit="10"/></g><g transform="translate(-78,-38) scale(1,1)"><path fill="none" stroke="#000000" d="M 596 110 L 785.7890625 371.5260416666667" stroke-miterlimit="10"/></g><g transform="translate(-78,-38) scale(1,1)"><path fill="none" stroke="#000000" d="M 223 686 L 545 514" stroke-miterlimit="10" stroke-dasharray="3"/></g><g transform="translate(-78,-38) scale(1,1)"><path fill="none" stroke="#000000" d="M 538.019361383584 522.5012166486334 L 545 514 L 534.052675156735 515.0752110379043" stroke-miterlimit="10"/></g><g transform="translate(-78,-38) scale(1,1)"><path fill="none" stroke="#000000" d="M 199 757 L 566 312" stroke-miterlimit="10" stroke-dasharray="3"/></g><g transform="translate(-78,-38) scale(1,1)"><path fill="none" stroke="#000000" d="M 562.7815147325866 322.5186193287638 L 566 312 L 556.2864001861742 317.16197429835177" stroke-miterlimit="10"/></g><g transform="translate(-78,-38) scale(1,1)"><path fill="none" stroke="#000000" d="M 212 757 L 554 514" stroke-miterlimit="10" stroke-dasharray="3"/></g><g transform="translate(-78,-38) scale(1,1)"><path fill="none" stroke="#000000" d="M 548.1537692678461 523.3178101626089 L 554 514 L 543.277403853123 516.4547773567025" stroke-miterlimit="10"/></g><g transform="translate(-78,-38) scale(1,1)"><path fill="none" stroke="#000000" d="M 256 189 L 519 109" stroke-miterlimit="10" stroke-dasharray="3"/></g><g transform="translate(-78,-38) scale(1,1)"><path fill="none" stroke="#000000" d="M 510.50222743614705 115.98483081062301 L 519 109 L 508.0521461634863 107.93018862675086" stroke-miterlimit="10"/></g><g transform="translate(-78,-38) scale(1,1)"><path fill="none" stroke="#000000" d="M 221 899 L 546 716" stroke-miterlimit="10" stroke-dasharray="3"/></g><g transform="translate(-78,-38) scale(1,1)"><path fill="none" stroke="#000000" d="M 539.2100157884995 724.6542541219665 L 546 716 L 535.0792743441443 717.3182378956526" stroke-miterlimit="10"/></g><g transform="translate(-78,-38) scale(1,1)"><path fill="none" stroke="#000000" d="M 274 916 L 519 902" stroke-miterlimit="10" stroke-dasharray="3"/></g><g transform="translate(-78,-38) scale(1,1)"><path fill="none" stroke="#000000" d="M 509.09402884732566 906.7824403312936 L 519 902 L 508.6137246348279 898.3771166125833" stroke-miterlimit="10"/></g><g transform="translate(-78,-38) scale(1,1)"><path fill="none" stroke="#000000" d="M 202 899 L 563 514" stroke-miterlimit="10" stroke-dasharray="3"/></g><g transform="translate(-78,-38) scale(1,1)"><path fill="none" stroke="#000000" d="M 559.1194392606933 524.2927765130966 L 563 514 L 552.9779371167818 518.5341212560782" stroke-miterlimit="10"/></g><g transform="translate(-78,-38) scale(1,1)"><path fill="none" stroke="#000000" d="M 191 899 L 572 110" stroke-miterlimit="10" stroke-dasharray="3"/></g><g transform="translate(-78,-38) scale(1,1)"><path fill="none" stroke="#000000" d="M 571.3715070192183 120.98203062157032 L 572 110 L 563.7901200276503 117.32105667507177" stroke-miterlimit="10"/></g><g transform="translate(-78,-38) scale(1,1)"><path fill="none" stroke="#000000" d="M 215 331 L 552 110" stroke-miterlimit="10" stroke-dasharray="3"/></g><g transform="translate(-78,-38) scale(1,1)"><path fill="none" stroke="#000000" d="M 545.8101480813037 119.09316959176567 L 552 110 L 541.1932718529325 112.0529556145661" stroke-miterlimit="10"/></g><g transform="translate(-78,-38) scale(1,1)"><path fill="none" stroke="#000000" d="M 208 402 L 558 110" stroke-miterlimit="10" stroke-dasharray="3"/></g><g transform="translate(-78,-38) scale(1,1)"><path fill="none" stroke="#000000" d="M 552.8931571330908 119.74269756960047 L 558 110 L 547.4997892598402 113.27804429686854" stroke-miterlimit="10"/></g><g transform="translate(-78,-38) scale(1,1)"><path fill="none" stroke="#000000" d="M 207 615 L 559 312" stroke-miterlimit="10" stroke-dasharray="3"/></g><g transform="translate(-78,-38) scale(1,1)"><path fill="none" stroke="#000000" d="M 554.0440694340241 321.82032342773016 L 559 312 L 548.5516106005157 315.43964517890186" stroke-miterlimit="10"/></g><g transform="translate(-78,-38) scale(1,1)"><path fill="none" stroke="#000000" d="M 225 473 L 543 312" stroke-miterlimit="10" stroke-dasharray="3"/></g><g transform="translate(-78,-38) scale(1,1)"><path fill="none" stroke="#000000" d="M 535.8345774542069 320.34606013279557 L 543 312 L 532.0317254117123 312.8348368438932" stroke-miterlimit="10"/></g><g transform="translate(-78,-38) scale(1,1)"><path fill="none" stroke="#000000" d="M 274 496 L 519 494" stroke-miterlimit="10" stroke-dasharray="3"/></g><g transform="translate(-78,-38) scale(1,1)"><path fill="none" stroke="#000000" d="M 508.8720260055327 498.2923353512271 L 519 494 L 508.80330147485176 489.87358034281056" stroke-miterlimit="10"/></g><g transform="translate(-78,-38) scale(1,1)"><path fill="none" stroke="#000000" d="M 203 473 L 562 110" stroke-miterlimit="10" stroke-dasharray="3"/></g><g transform="translate(-78,-38) scale(1,1)"><path fill="none" stroke="#000000" d="M 557.846848888544 120.18583996759281 L 562 110 L 551.8608021726311 114.2657551989628" stroke-miterlimit="10"/></g><g transform="translate(-78,-38) scale(1,1)"><path fill="none" stroke="#000000" d="M 274 550 L 519 505" stroke-miterlimit="10" stroke-dasharray="3"/></g><g transform="translate(-78,-38) scale(1,1)"><path fill="none" stroke="#000000" d="M 509.76498572491965 510.9761619237653 L 519 505 L 508.24407415997285 502.6956434034994" stroke-miterlimit="10"/></g><g transform="translate(-78,-38) scale(1,1)"><path fill="none" stroke="#000000" d="M 199 544 L 565 110" stroke-miterlimit="10" stroke-dasharray="3"/></g><g transform="translate(-78,-38) scale(1,1)"><path fill="none" stroke="#000000" d="M 561.6663308125974 120.48268332770584 L 565 110 L 555.2303634453029 115.0551163774069" stroke-miterlimit="10"/></g><g transform="translate(-78,-38) scale(1,1)"><path fill="none" stroke="#000000" d="M 206 828 L 559 514" stroke-miterlimit="10" stroke-dasharray="3"/></g><g transform="translate(-78,-38) scale(1,1)"><path fill="none" stroke="#000000" d="M 554.2044534598598 523.8996329922553 L 559 514 L 548.6089389018894 517.6091341420529" stroke-miterlimit="10"/></g><g transform="translate(-78,-38) scale(1,1)"><path fill="none" stroke="#000000" d="M 274 285 L 519 291" stroke-miterlimit="10" stroke-dasharray="3"/></g><g transform="translate(-78,-38) scale(1,1)"><path fill="none" stroke="#000000" d="M 508.7373119744242 294.9594487608382 L 519 291 L 508.943430635364 286.5429367724627" stroke-miterlimit="10"/></g><g transform="translate(-78,-38) scale(1,1)"><path fill="none" stroke="#000000" d="M 228 260 L 540 110" stroke-miterlimit="10" stroke-dasharray="3"/></g><g transform="translate(-78,-38) scale(1,1)"><path fill="none" stroke="#000000" d="M 532.6648252620644 118.19726854287148 L 540 110 L 529.0169040277458 110.60959237548902" stroke-miterlimit="10"/></g></g></svg>